<svg width="32" height="32" viewBox="0 0 32 32" fill="none" xmlns="http://www.w3.org/2000/svg">
<g clip-path="url(#clip0_42_782)">
<circle cx="16" cy="16" r="16" fill="white"/>
<path d="M12.3199 3.9865C11.5128 4.52973 10.8571 4.97484 10.8661 4.97484C10.8733 4.97484 12.5469 5.43813 14.5863 6.00316C21.5042 7.91989 23.1923 8.38862 23.2391 8.39952C23.2769 8.40861 23.5057 8.25963 24.7524 7.41845C25.5577 6.87341 26.2207 6.42102 26.2225 6.41375C26.2261 6.40649 25.9667 6.33018 25.646 6.24297C25.3271 6.15577 24.3651 5.89233 23.5075 5.65796C22.65 5.4236 20.1495 4.74048 17.9498 4.13911C15.7501 3.53775 13.9143 3.03631 13.8692 3.0236L13.7882 2.99998L12.3199 3.9865Z" fill="#200200"/>
<path d="M10.0986 6.64088C10.0842 7.44754 10.0391 8.09432 9.94004 8.881C9.39958 13.2504 7.44669 17.4981 4.39126 20.9537C4.0922 21.2934 3.41842 21.9838 3.17161 22.2036C3.07073 22.2945 2.99326 22.3744 3.00046 22.3817C3.00947 22.3889 4.12103 22.8014 5.47399 23.2974C9.41039 24.7435 14.053 26.4477 14.8331 26.7347L15.5537 27L15.8491 26.693C17.7642 24.7054 19.4901 22.0801 20.6719 19.3494C21.9618 16.3735 22.6914 13.1123 22.7797 9.9184L22.7923 9.5078L16.4707 7.77457C12.9937 6.82074 10.14 6.0377 10.1292 6.03407C10.1148 6.02862 10.1058 6.20848 10.0986 6.64088Z" fill="#200200"/>
<path d="M25.4984 8.37226L24.0031 9.39149L23.9905 9.73123C23.9581 10.6251 23.9167 11.2664 23.85 11.9332C23.5996 14.3877 23.0087 16.8186 22.1043 19.095C21.1026 21.624 19.692 24.0186 17.9769 26.1115C17.9031 26.2024 17.8508 26.2696 17.8598 26.2642C17.8706 26.2587 19.9208 25.1159 22.4178 23.7243C24.9147 22.3326 26.9685 21.1844 26.9811 21.1735C26.9973 21.1571 27.0027 19.7582 26.9991 14.2533L26.9937 7.35485L25.4984 8.37226Z" fill="#200200"/>
</g>
<defs>
<clipPath id="clip0_42_782">
<rect width="32" height="32" fill="white"/>
</clipPath>
</defs>
</svg>
