<svg width="32" height="23" viewBox="0 0 32 23" fill="none" xmlns="http://www.w3.org/2000/svg">
<path d="M31.3307 3.77855C31.1499 3.11625 30.7934 2.51177 30.2968 2.02565C29.8003 1.53952 29.1811 1.18881 28.5013 1.00864C26.0067 0.35376 16 0.35376 16 0.35376C16 0.35376 5.99333 0.35376 3.49733 1.00864C2.81788 1.18913 2.19906 1.53997 1.70277 2.02605C1.20648 2.51215 0.850122 3.11646 0.669333 3.77855C0 6.22167 0 11.318 0 11.318C0 11.318 0 16.4143 0.669333 18.8574C0.850115 19.5198 1.20663 20.1242 1.70319 20.6103C2.19974 21.0964 2.8189 21.4471 3.49867 21.6274C5.99333 22.2822 16 22.2822 16 22.2822C16 22.2822 26.0067 22.2822 28.5027 21.6274C29.1825 21.4473 29.8017 21.0966 30.2983 20.6105C30.7949 20.1243 31.1513 19.5198 31.332 18.8574C32 16.4143 32 11.318 32 11.318C32 11.318 32 6.22167 31.3307 3.77855ZM12.7267 15.9449V6.69114L21.0907 11.318L12.7267 15.9449Z" fill="url(#paint0_linear_20_1442)"/>
<defs>
<linearGradient id="paint0_linear_20_1442" x1="16.0695" y1="22.2822" x2="15.4061" y2="0.369638" gradientUnits="userSpaceOnUse">
<stop stop-color="#FF1700"/>
<stop offset="0.5" stop-color="#F2320C"/>
<stop offset="1" stop-color="#B00000"/>
</linearGradient>
</defs>
</svg>
